<mxfile host="app.diagrams.net" modified="2024-06-15T02:14:10.047Z" agent="Mozilla/5.0 (Windows NT 10.0; Win64; x64) AppleWebKit/537.36 (KHTML, like Gecko) Chrome/126.0.0.0 Safari/537.36" etag="tLWXBSe1v6SKFeuanSwm" version="24.5.4" type="device" pages="6">
  <diagram name="Trang-1" id="KycSO6HTyvSPjNRqI0hq">
    <mxGraphModel dx="1194" dy="846" grid="1" gridSize="10" guides="1" tooltips="1" connect="1" arrows="1" fold="1" page="0" pageScale="1" pageWidth="827" pageHeight="1169" math="0" shadow="0">
      <root>
        <mxCell id="0" />
        <mxCell id="1" parent="0" />
        <mxCell id="kM9TZIqzxClmoaefUckP-1" value="&lt;div&gt;Quản lý&lt;/div&gt;" style="shape=umlActor;verticalLabelPosition=bottom;verticalAlign=top;html=1;outlineConnect=0;" vertex="1" parent="1">
          <mxGeometry x="-110" y="90" width="30" height="60" as="geometry" />
        </mxCell>
        <mxCell id="kM9TZIqzxClmoaefUckP-8" value="Quản lý thực đơn" style="ellipse;whiteSpace=wrap;html=1;" vertex="1" parent="1">
          <mxGeometry x="90" y="100" width="120" height="80" as="geometry" />
        </mxCell>
        <mxCell id="kM9TZIqzxClmoaefUckP-13" value="cập nhật món" style="ellipse;whiteSpace=wrap;html=1;" vertex="1" parent="1">
          <mxGeometry x="-60" y="220" width="120" height="80" as="geometry" />
        </mxCell>
        <mxCell id="kM9TZIqzxClmoaefUckP-14" value="cập nhật giá tiền" style="ellipse;whiteSpace=wrap;html=1;" vertex="1" parent="1">
          <mxGeometry x="290" y="190" width="120" height="80" as="geometry" />
        </mxCell>
        <mxCell id="kM9TZIqzxClmoaefUckP-15" value="Đăng nhập với vai trò quản lý" style="ellipse;whiteSpace=wrap;html=1;" vertex="1" parent="1">
          <mxGeometry x="70" y="-60" width="120" height="80" as="geometry" />
        </mxCell>
        <mxCell id="kM9TZIqzxClmoaefUckP-22" value="" style="endArrow=classic;html=1;rounded=0;entryX=0.061;entryY=0.783;entryDx=0;entryDy=0;entryPerimeter=0;exitX=1;exitY=0.3333333333333333;exitDx=0;exitDy=0;exitPerimeter=0;" edge="1" parent="1" source="kM9TZIqzxClmoaefUckP-1" target="kM9TZIqzxClmoaefUckP-15">
          <mxGeometry width="50" height="50" relative="1" as="geometry">
            <mxPoint x="-60" y="140" as="sourcePoint" />
            <mxPoint y="80" as="targetPoint" />
          </mxGeometry>
        </mxCell>
        <mxCell id="kM9TZIqzxClmoaefUckP-24" value="" style="endArrow=classic;html=1;rounded=0;exitX=1;exitY=0.3333333333333333;exitDx=0;exitDy=0;exitPerimeter=0;entryX=0;entryY=0;entryDx=0;entryDy=0;" edge="1" parent="1" source="kM9TZIqzxClmoaefUckP-1" target="kM9TZIqzxClmoaefUckP-8">
          <mxGeometry width="50" height="50" relative="1" as="geometry">
            <mxPoint x="-10" y="170" as="sourcePoint" />
            <mxPoint x="40" y="120" as="targetPoint" />
          </mxGeometry>
        </mxCell>
        <mxCell id="kM9TZIqzxClmoaefUckP-25" value="&amp;lt;&amp;lt;extend&amp;gt;&amp;gt;" style="edgeStyle=none;html=1;startArrow=open;endArrow=none;startSize=12;verticalAlign=bottom;dashed=1;labelBackgroundColor=none;rounded=0;exitX=0;exitY=1;exitDx=0;exitDy=0;" edge="1" parent="1" source="kM9TZIqzxClmoaefUckP-8" target="kM9TZIqzxClmoaefUckP-13">
          <mxGeometry width="160" relative="1" as="geometry">
            <mxPoint x="-60" y="170" as="sourcePoint" />
            <mxPoint x="100" y="170" as="targetPoint" />
          </mxGeometry>
        </mxCell>
        <mxCell id="kM9TZIqzxClmoaefUckP-27" value="&amp;lt;&amp;lt;extend&amp;gt;&amp;gt;" style="edgeStyle=none;html=1;startArrow=open;endArrow=none;startSize=12;verticalAlign=bottom;dashed=1;labelBackgroundColor=none;rounded=0;exitX=1.017;exitY=0.617;exitDx=0;exitDy=0;exitPerimeter=0;entryX=0.5;entryY=0;entryDx=0;entryDy=0;" edge="1" parent="1" source="kM9TZIqzxClmoaefUckP-8" target="kM9TZIqzxClmoaefUckP-14">
          <mxGeometry width="160" relative="1" as="geometry">
            <mxPoint x="230" y="150" as="sourcePoint" />
            <mxPoint x="390" y="150" as="targetPoint" />
          </mxGeometry>
        </mxCell>
        <mxCell id="kM9TZIqzxClmoaefUckP-28" value="&amp;lt;&amp;lt;include&amp;gt;&amp;gt;" style="html=1;verticalAlign=bottom;labelBackgroundColor=none;endArrow=open;endFill=0;dashed=1;rounded=0;exitX=0.5;exitY=0;exitDx=0;exitDy=0;entryX=0.5;entryY=1;entryDx=0;entryDy=0;" edge="1" parent="1" source="kM9TZIqzxClmoaefUckP-8" target="kM9TZIqzxClmoaefUckP-15">
          <mxGeometry width="160" relative="1" as="geometry">
            <mxPoint x="140" y="60" as="sourcePoint" />
            <mxPoint x="300" y="60" as="targetPoint" />
          </mxGeometry>
        </mxCell>
      </root>
    </mxGraphModel>
  </diagram>
  <diagram id="1hfn9mcpjmtG3X2a3UpG" name="Trang-2">
    <mxGraphModel dx="1621" dy="446" grid="1" gridSize="10" guides="1" tooltips="1" connect="1" arrows="1" fold="1" page="1" pageScale="1" pageWidth="827" pageHeight="1169" math="0" shadow="0">
      <root>
        <mxCell id="0" />
        <mxCell id="1" parent="0" />
        <mxCell id="jfRWAHCbdy6oy42ovumf-1" value="&lt;div&gt;Nhân viên&lt;/div&gt;" style="shape=umlActor;verticalLabelPosition=bottom;verticalAlign=top;html=1;outlineConnect=0;" vertex="1" parent="1">
          <mxGeometry x="-650" y="270" width="30" height="60" as="geometry" />
        </mxCell>
        <mxCell id="jfRWAHCbdy6oy42ovumf-2" value="Lập phiếu đặt món" style="ellipse;whiteSpace=wrap;html=1;" vertex="1" parent="1">
          <mxGeometry x="-540" y="250" width="120" height="80" as="geometry" />
        </mxCell>
        <mxCell id="jfRWAHCbdy6oy42ovumf-3" value="Chọn món" style="ellipse;whiteSpace=wrap;html=1;" vertex="1" parent="1">
          <mxGeometry x="-460" y="120" width="120" height="80" as="geometry" />
        </mxCell>
        <mxCell id="jfRWAHCbdy6oy42ovumf-4" value="Chọn số lượng" style="ellipse;whiteSpace=wrap;html=1;" vertex="1" parent="1">
          <mxGeometry x="-460" y="380" width="120" height="80" as="geometry" />
        </mxCell>
        <mxCell id="jfRWAHCbdy6oy42ovumf-7" value="" style="endArrow=classic;html=1;rounded=0;exitX=1;exitY=0.3333333333333333;exitDx=0;exitDy=0;exitPerimeter=0;entryX=0;entryY=0.5;entryDx=0;entryDy=0;" edge="1" parent="1" source="jfRWAHCbdy6oy42ovumf-1" target="jfRWAHCbdy6oy42ovumf-2">
          <mxGeometry width="50" height="50" relative="1" as="geometry">
            <mxPoint x="-610" y="340" as="sourcePoint" />
            <mxPoint x="-560" y="290" as="targetPoint" />
          </mxGeometry>
        </mxCell>
        <mxCell id="jfRWAHCbdy6oy42ovumf-8" value="&amp;lt;&amp;lt;extend&amp;gt;&amp;gt;" style="edgeStyle=none;html=1;startArrow=open;endArrow=none;startSize=12;verticalAlign=bottom;dashed=1;labelBackgroundColor=none;rounded=0;exitX=0.5;exitY=0;exitDx=0;exitDy=0;" edge="1" parent="1" source="jfRWAHCbdy6oy42ovumf-2" target="jfRWAHCbdy6oy42ovumf-3">
          <mxGeometry width="160" relative="1" as="geometry">
            <mxPoint x="-660" y="340" as="sourcePoint" />
            <mxPoint x="-500" y="340" as="targetPoint" />
          </mxGeometry>
        </mxCell>
        <mxCell id="jfRWAHCbdy6oy42ovumf-9" value="&amp;lt;&amp;lt;extend&amp;gt;&amp;gt;" style="edgeStyle=none;html=1;startArrow=open;endArrow=none;startSize=12;verticalAlign=bottom;dashed=1;labelBackgroundColor=none;rounded=0;exitX=1;exitY=1;exitDx=0;exitDy=0;entryX=0;entryY=0;entryDx=0;entryDy=0;" edge="1" parent="1" source="jfRWAHCbdy6oy42ovumf-2" target="jfRWAHCbdy6oy42ovumf-4">
          <mxGeometry width="160" relative="1" as="geometry">
            <mxPoint x="-370" y="320" as="sourcePoint" />
            <mxPoint x="-210" y="320" as="targetPoint" />
          </mxGeometry>
        </mxCell>
        <mxCell id="jfRWAHCbdy6oy42ovumf-11" value="Tính tiền" style="ellipse;whiteSpace=wrap;html=1;" vertex="1" parent="1">
          <mxGeometry x="-306" y="250" width="120" height="80" as="geometry" />
        </mxCell>
        <mxCell id="jfRWAHCbdy6oy42ovumf-12" value="&amp;lt;&amp;lt;extend&amp;gt;&amp;gt;" style="edgeStyle=none;html=1;startArrow=open;endArrow=none;startSize=12;verticalAlign=bottom;dashed=1;labelBackgroundColor=none;rounded=0;entryX=0;entryY=0.5;entryDx=0;entryDy=0;" edge="1" parent="1" target="jfRWAHCbdy6oy42ovumf-11" source="jfRWAHCbdy6oy42ovumf-2">
          <mxGeometry width="160" relative="1" as="geometry">
            <mxPoint x="-360" y="180" as="sourcePoint" />
            <mxPoint x="-182" y="181" as="targetPoint" />
          </mxGeometry>
        </mxCell>
        <mxCell id="Mp-HFQl_ipx6zdCEQJsZ-1" value="thông tin kh" style="ellipse;whiteSpace=wrap;html=1;" vertex="1" parent="1">
          <mxGeometry x="-660" y="400" width="120" height="80" as="geometry" />
        </mxCell>
      </root>
    </mxGraphModel>
  </diagram>
  <diagram id="1J5NryjX8rpjXLORZxcQ" name="Trang-3">
    <mxGraphModel dx="1621" dy="446" grid="1" gridSize="10" guides="1" tooltips="1" connect="1" arrows="1" fold="1" page="1" pageScale="1" pageWidth="827" pageHeight="1169" math="0" shadow="0">
      <root>
        <mxCell id="0" />
        <mxCell id="1" parent="0" />
        <mxCell id="qQWgMijJ6U0gjhIMaVtj-1" value="&lt;div&gt;Nhân viên&lt;/div&gt;" style="shape=umlActor;verticalLabelPosition=bottom;verticalAlign=top;html=1;outlineConnect=0;" vertex="1" parent="1">
          <mxGeometry x="-650" y="270" width="30" height="60" as="geometry" />
        </mxCell>
        <mxCell id="qQWgMijJ6U0gjhIMaVtj-2" value="Thanh toán" style="ellipse;whiteSpace=wrap;html=1;" vertex="1" parent="1">
          <mxGeometry x="-540" y="250" width="120" height="80" as="geometry" />
        </mxCell>
        <mxCell id="qQWgMijJ6U0gjhIMaVtj-3" value="Tính tiền hóa đơn" style="ellipse;whiteSpace=wrap;html=1;" vertex="1" parent="1">
          <mxGeometry x="-460" y="120" width="120" height="80" as="geometry" />
        </mxCell>
        <mxCell id="qQWgMijJ6U0gjhIMaVtj-5" value="" style="endArrow=classic;html=1;rounded=0;exitX=1;exitY=0.3333333333333333;exitDx=0;exitDy=0;exitPerimeter=0;entryX=0;entryY=0.5;entryDx=0;entryDy=0;" edge="1" parent="1" source="qQWgMijJ6U0gjhIMaVtj-1" target="qQWgMijJ6U0gjhIMaVtj-2">
          <mxGeometry width="50" height="50" relative="1" as="geometry">
            <mxPoint x="-610" y="340" as="sourcePoint" />
            <mxPoint x="-560" y="290" as="targetPoint" />
          </mxGeometry>
        </mxCell>
        <mxCell id="qQWgMijJ6U0gjhIMaVtj-6" value="&amp;lt;&amp;lt;extend&amp;gt;&amp;gt;" style="edgeStyle=none;html=1;startArrow=open;endArrow=none;startSize=12;verticalAlign=bottom;dashed=1;labelBackgroundColor=none;rounded=0;exitX=0.5;exitY=0;exitDx=0;exitDy=0;" edge="1" parent="1" source="qQWgMijJ6U0gjhIMaVtj-2" target="qQWgMijJ6U0gjhIMaVtj-3">
          <mxGeometry width="160" relative="1" as="geometry">
            <mxPoint x="-660" y="340" as="sourcePoint" />
            <mxPoint x="-500" y="340" as="targetPoint" />
          </mxGeometry>
        </mxCell>
        <mxCell id="qQWgMijJ6U0gjhIMaVtj-8" value="Xuất hóa đơn" style="ellipse;whiteSpace=wrap;html=1;" vertex="1" parent="1">
          <mxGeometry x="-330" y="250" width="120" height="80" as="geometry" />
        </mxCell>
        <mxCell id="qQWgMijJ6U0gjhIMaVtj-9" value="&amp;lt;&amp;lt;extend&amp;gt;&amp;gt;" style="edgeStyle=none;html=1;startArrow=open;endArrow=none;startSize=12;verticalAlign=bottom;dashed=1;labelBackgroundColor=none;rounded=0;entryX=0;entryY=0.5;entryDx=0;entryDy=0;" edge="1" parent="1" source="qQWgMijJ6U0gjhIMaVtj-2" target="qQWgMijJ6U0gjhIMaVtj-8">
          <mxGeometry width="160" relative="1" as="geometry">
            <mxPoint x="-360" y="180" as="sourcePoint" />
            <mxPoint x="-182" y="181" as="targetPoint" />
          </mxGeometry>
        </mxCell>
      </root>
    </mxGraphModel>
  </diagram>
  <diagram id="qrBijFHP7j_QZ0loupf8" name="Trang-4">
    <mxGraphModel dx="1621" dy="446" grid="1" gridSize="10" guides="1" tooltips="1" connect="1" arrows="1" fold="1" page="1" pageScale="1" pageWidth="827" pageHeight="1169" math="0" shadow="0">
      <root>
        <mxCell id="0" />
        <mxCell id="1" parent="0" />
        <mxCell id="jl_ENGyJ5ZsVTDmQWfj6-1" value="&lt;div&gt;Nhân viên&lt;/div&gt;" style="shape=umlActor;verticalLabelPosition=bottom;verticalAlign=top;html=1;outlineConnect=0;" vertex="1" parent="1">
          <mxGeometry x="-650" y="270" width="30" height="60" as="geometry" />
        </mxCell>
        <mxCell id="jl_ENGyJ5ZsVTDmQWfj6-2" value="Drop" style="ellipse;whiteSpace=wrap;html=1;" vertex="1" parent="1">
          <mxGeometry x="-540" y="250" width="120" height="80" as="geometry" />
        </mxCell>
        <mxCell id="jl_ENGyJ5ZsVTDmQWfj6-3" value="Cập nhật thông tin khách hàng" style="ellipse;whiteSpace=wrap;html=1;" vertex="1" parent="1">
          <mxGeometry x="-460" y="120" width="120" height="80" as="geometry" />
        </mxCell>
        <mxCell id="jl_ENGyJ5ZsVTDmQWfj6-4" value="" style="endArrow=classic;html=1;rounded=0;exitX=1;exitY=0.3333333333333333;exitDx=0;exitDy=0;exitPerimeter=0;entryX=0;entryY=0.5;entryDx=0;entryDy=0;" edge="1" parent="1" source="jl_ENGyJ5ZsVTDmQWfj6-1" target="jl_ENGyJ5ZsVTDmQWfj6-2">
          <mxGeometry width="50" height="50" relative="1" as="geometry">
            <mxPoint x="-610" y="340" as="sourcePoint" />
            <mxPoint x="-560" y="290" as="targetPoint" />
          </mxGeometry>
        </mxCell>
        <mxCell id="jl_ENGyJ5ZsVTDmQWfj6-5" value="&amp;lt;&amp;lt;extend&amp;gt;&amp;gt;" style="edgeStyle=none;html=1;startArrow=open;endArrow=none;startSize=12;verticalAlign=bottom;dashed=1;labelBackgroundColor=none;rounded=0;exitX=0.5;exitY=0;exitDx=0;exitDy=0;" edge="1" parent="1" source="jl_ENGyJ5ZsVTDmQWfj6-2" target="jl_ENGyJ5ZsVTDmQWfj6-3">
          <mxGeometry width="160" relative="1" as="geometry">
            <mxPoint x="-660" y="340" as="sourcePoint" />
            <mxPoint x="-500" y="340" as="targetPoint" />
          </mxGeometry>
        </mxCell>
        <mxCell id="jl_ENGyJ5ZsVTDmQWfj6-6" value="lưu trữ lịch sử mua hàng" style="ellipse;whiteSpace=wrap;html=1;" vertex="1" parent="1">
          <mxGeometry x="-330" y="250" width="120" height="80" as="geometry" />
        </mxCell>
        <mxCell id="jl_ENGyJ5ZsVTDmQWfj6-7" value="&amp;lt;&amp;lt;extend&amp;gt;&amp;gt;" style="edgeStyle=none;html=1;startArrow=open;endArrow=none;startSize=12;verticalAlign=bottom;dashed=1;labelBackgroundColor=none;rounded=0;entryX=0;entryY=0.5;entryDx=0;entryDy=0;" edge="1" parent="1" source="jl_ENGyJ5ZsVTDmQWfj6-2" target="jl_ENGyJ5ZsVTDmQWfj6-6">
          <mxGeometry width="160" relative="1" as="geometry">
            <mxPoint x="-360" y="180" as="sourcePoint" />
            <mxPoint x="-182" y="181" as="targetPoint" />
          </mxGeometry>
        </mxCell>
      </root>
    </mxGraphModel>
  </diagram>
  <diagram id="uRiG3hfg5JxYh88RMlh7" name="Trang-5">
    <mxGraphModel dx="1709" dy="1665" grid="1" gridSize="10" guides="1" tooltips="1" connect="1" arrows="1" fold="1" page="1" pageScale="1" pageWidth="827" pageHeight="1169" math="0" shadow="0">
      <root>
        <mxCell id="0" />
        <mxCell id="1" parent="0" />
        <mxCell id="fx8P-jN0BLUwyywB3xkU-1" value="&lt;div&gt;Quản lý&lt;/div&gt;" style="shape=umlActor;verticalLabelPosition=bottom;verticalAlign=top;html=1;outlineConnect=0;" vertex="1" parent="1">
          <mxGeometry x="-620" y="-860" width="30" height="60" as="geometry" />
        </mxCell>
        <mxCell id="fx8P-jN0BLUwyywB3xkU-2" value="Báo cáo và thống kê" style="ellipse;whiteSpace=wrap;html=1;" vertex="1" parent="1">
          <mxGeometry x="-420" y="-850" width="120" height="80" as="geometry" />
        </mxCell>
        <mxCell id="fx8P-jN0BLUwyywB3xkU-3" value="Cung cấp báo cáo doanh thu" style="ellipse;whiteSpace=wrap;html=1;" vertex="1" parent="1">
          <mxGeometry x="-570" y="-730" width="120" height="80" as="geometry" />
        </mxCell>
        <mxCell id="fx8P-jN0BLUwyywB3xkU-4" value="phân tích xu hướng bán hàng" style="ellipse;whiteSpace=wrap;html=1;" vertex="1" parent="1">
          <mxGeometry x="-220" y="-760" width="120" height="80" as="geometry" />
        </mxCell>
        <mxCell id="fx8P-jN0BLUwyywB3xkU-5" value="Đăng nhập với vai trò quản lý" style="ellipse;whiteSpace=wrap;html=1;" vertex="1" parent="1">
          <mxGeometry x="-440" y="-1010" width="120" height="80" as="geometry" />
        </mxCell>
        <mxCell id="fx8P-jN0BLUwyywB3xkU-6" value="" style="endArrow=classic;html=1;rounded=0;entryX=0.061;entryY=0.783;entryDx=0;entryDy=0;entryPerimeter=0;exitX=1;exitY=0.3333333333333333;exitDx=0;exitDy=0;exitPerimeter=0;" edge="1" parent="1" source="fx8P-jN0BLUwyywB3xkU-1" target="fx8P-jN0BLUwyywB3xkU-5">
          <mxGeometry width="50" height="50" relative="1" as="geometry">
            <mxPoint x="-570" y="-810" as="sourcePoint" />
            <mxPoint x="-510" y="-870" as="targetPoint" />
          </mxGeometry>
        </mxCell>
        <mxCell id="fx8P-jN0BLUwyywB3xkU-7" value="" style="endArrow=classic;html=1;rounded=0;exitX=1;exitY=0.3333333333333333;exitDx=0;exitDy=0;exitPerimeter=0;entryX=0;entryY=0;entryDx=0;entryDy=0;" edge="1" parent="1" source="fx8P-jN0BLUwyywB3xkU-1" target="fx8P-jN0BLUwyywB3xkU-2">
          <mxGeometry width="50" height="50" relative="1" as="geometry">
            <mxPoint x="-520" y="-780" as="sourcePoint" />
            <mxPoint x="-470" y="-830" as="targetPoint" />
          </mxGeometry>
        </mxCell>
        <mxCell id="fx8P-jN0BLUwyywB3xkU-8" value="&amp;lt;&amp;lt;extend&amp;gt;&amp;gt;" style="edgeStyle=none;html=1;startArrow=open;endArrow=none;startSize=12;verticalAlign=bottom;dashed=1;labelBackgroundColor=none;rounded=0;exitX=0;exitY=1;exitDx=0;exitDy=0;" edge="1" parent="1" source="fx8P-jN0BLUwyywB3xkU-2" target="fx8P-jN0BLUwyywB3xkU-3">
          <mxGeometry width="160" relative="1" as="geometry">
            <mxPoint x="-570" y="-780" as="sourcePoint" />
            <mxPoint x="-410" y="-780" as="targetPoint" />
          </mxGeometry>
        </mxCell>
        <mxCell id="fx8P-jN0BLUwyywB3xkU-9" value="&amp;lt;&amp;lt;extend&amp;gt;&amp;gt;" style="edgeStyle=none;html=1;startArrow=open;endArrow=none;startSize=12;verticalAlign=bottom;dashed=1;labelBackgroundColor=none;rounded=0;exitX=1.017;exitY=0.617;exitDx=0;exitDy=0;exitPerimeter=0;entryX=0.5;entryY=0;entryDx=0;entryDy=0;" edge="1" parent="1" source="fx8P-jN0BLUwyywB3xkU-2" target="fx8P-jN0BLUwyywB3xkU-4">
          <mxGeometry width="160" relative="1" as="geometry">
            <mxPoint x="-280" y="-800" as="sourcePoint" />
            <mxPoint x="-120" y="-800" as="targetPoint" />
          </mxGeometry>
        </mxCell>
        <mxCell id="fx8P-jN0BLUwyywB3xkU-10" value="&amp;lt;&amp;lt;include&amp;gt;&amp;gt;" style="html=1;verticalAlign=bottom;labelBackgroundColor=none;endArrow=open;endFill=0;dashed=1;rounded=0;exitX=0.5;exitY=0;exitDx=0;exitDy=0;entryX=0.5;entryY=1;entryDx=0;entryDy=0;" edge="1" parent="1" source="fx8P-jN0BLUwyywB3xkU-2" target="fx8P-jN0BLUwyywB3xkU-5">
          <mxGeometry width="160" relative="1" as="geometry">
            <mxPoint x="-370" y="-890" as="sourcePoint" />
            <mxPoint x="-210" y="-890" as="targetPoint" />
          </mxGeometry>
        </mxCell>
      </root>
    </mxGraphModel>
  </diagram>
  <diagram id="7t6DGNk3H5zo2o9zo2XA" name="Trang-6">
    <mxGraphModel dx="794" dy="446" grid="1" gridSize="10" guides="1" tooltips="1" connect="1" arrows="1" fold="1" page="1" pageScale="1" pageWidth="827" pageHeight="1169" math="0" shadow="0">
      <root>
        <mxCell id="0" />
        <mxCell id="1" parent="0" />
        <mxCell id="4JTax6uHVL0joKIB7uNC-1" value="&lt;div&gt;Quản lý&lt;/div&gt;" style="shape=umlActor;verticalLabelPosition=bottom;verticalAlign=top;html=1;outlineConnect=0;" vertex="1" parent="1">
          <mxGeometry x="120" y="320" width="30" height="60" as="geometry" />
        </mxCell>
        <mxCell id="4JTax6uHVL0joKIB7uNC-2" value="Quản lý nhân viên" style="ellipse;whiteSpace=wrap;html=1;" vertex="1" parent="1">
          <mxGeometry x="320" y="330" width="120" height="80" as="geometry" />
        </mxCell>
        <mxCell id="4JTax6uHVL0joKIB7uNC-3" value="Quản lí thông tin nhân viên" style="ellipse;whiteSpace=wrap;html=1;" vertex="1" parent="1">
          <mxGeometry x="170" y="450" width="120" height="80" as="geometry" />
        </mxCell>
        <mxCell id="4JTax6uHVL0joKIB7uNC-4" value="Phân quyền cho tài khoản" style="ellipse;whiteSpace=wrap;html=1;" vertex="1" parent="1">
          <mxGeometry x="520" y="420" width="120" height="80" as="geometry" />
        </mxCell>
        <mxCell id="4JTax6uHVL0joKIB7uNC-5" value="Đăng nhập với vai trò quản lý" style="ellipse;whiteSpace=wrap;html=1;" vertex="1" parent="1">
          <mxGeometry x="300" y="170" width="120" height="80" as="geometry" />
        </mxCell>
        <mxCell id="4JTax6uHVL0joKIB7uNC-6" value="" style="endArrow=classic;html=1;rounded=0;entryX=0.061;entryY=0.783;entryDx=0;entryDy=0;entryPerimeter=0;exitX=1;exitY=0.3333333333333333;exitDx=0;exitDy=0;exitPerimeter=0;" edge="1" parent="1" source="4JTax6uHVL0joKIB7uNC-1" target="4JTax6uHVL0joKIB7uNC-5">
          <mxGeometry width="50" height="50" relative="1" as="geometry">
            <mxPoint x="170" y="370" as="sourcePoint" />
            <mxPoint x="230" y="310" as="targetPoint" />
          </mxGeometry>
        </mxCell>
        <mxCell id="4JTax6uHVL0joKIB7uNC-7" value="" style="endArrow=classic;html=1;rounded=0;exitX=1;exitY=0.3333333333333333;exitDx=0;exitDy=0;exitPerimeter=0;entryX=0;entryY=0;entryDx=0;entryDy=0;" edge="1" parent="1" source="4JTax6uHVL0joKIB7uNC-1" target="4JTax6uHVL0joKIB7uNC-2">
          <mxGeometry width="50" height="50" relative="1" as="geometry">
            <mxPoint x="220" y="400" as="sourcePoint" />
            <mxPoint x="270" y="350" as="targetPoint" />
          </mxGeometry>
        </mxCell>
        <mxCell id="4JTax6uHVL0joKIB7uNC-8" value="&amp;lt;&amp;lt;extend&amp;gt;&amp;gt;" style="edgeStyle=none;html=1;startArrow=open;endArrow=none;startSize=12;verticalAlign=bottom;dashed=1;labelBackgroundColor=none;rounded=0;exitX=0;exitY=1;exitDx=0;exitDy=0;" edge="1" parent="1" source="4JTax6uHVL0joKIB7uNC-2" target="4JTax6uHVL0joKIB7uNC-3">
          <mxGeometry width="160" relative="1" as="geometry">
            <mxPoint x="170" y="400" as="sourcePoint" />
            <mxPoint x="330" y="400" as="targetPoint" />
          </mxGeometry>
        </mxCell>
        <mxCell id="4JTax6uHVL0joKIB7uNC-9" value="&amp;lt;&amp;lt;extend&amp;gt;&amp;gt;" style="edgeStyle=none;html=1;startArrow=open;endArrow=none;startSize=12;verticalAlign=bottom;dashed=1;labelBackgroundColor=none;rounded=0;exitX=1.017;exitY=0.617;exitDx=0;exitDy=0;exitPerimeter=0;entryX=0.5;entryY=0;entryDx=0;entryDy=0;" edge="1" parent="1" source="4JTax6uHVL0joKIB7uNC-2" target="4JTax6uHVL0joKIB7uNC-4">
          <mxGeometry width="160" relative="1" as="geometry">
            <mxPoint x="460" y="380" as="sourcePoint" />
            <mxPoint x="620" y="380" as="targetPoint" />
          </mxGeometry>
        </mxCell>
        <mxCell id="4JTax6uHVL0joKIB7uNC-10" value="&amp;lt;&amp;lt;include&amp;gt;&amp;gt;" style="html=1;verticalAlign=bottom;labelBackgroundColor=none;endArrow=open;endFill=0;dashed=1;rounded=0;exitX=0.5;exitY=0;exitDx=0;exitDy=0;entryX=0.5;entryY=1;entryDx=0;entryDy=0;" edge="1" parent="1" source="4JTax6uHVL0joKIB7uNC-2" target="4JTax6uHVL0joKIB7uNC-5">
          <mxGeometry width="160" relative="1" as="geometry">
            <mxPoint x="370" y="290" as="sourcePoint" />
            <mxPoint x="530" y="290" as="targetPoint" />
          </mxGeometry>
        </mxCell>
      </root>
    </mxGraphModel>
  </diagram>
</mxfile>
